<svg xmlns="http://www.w3.org/2000/svg" viewBox="0 0 120 120"><g stroke="#1B1B1B" stroke-width="5" stroke-linejoin="round" stroke-linecap="round"><circle cx="100.0" cy="62.0" r="15" fill="#EFC08D"/><circle cx="94.6" cy="82.0" r="15" fill="#EFC08D"/><circle cx="80.0" cy="96.6" r="15" fill="#EFC08D"/><circle cx="60.0" cy="102.0" r="15" fill="#EFC08D"/><circle cx="40.0" cy="96.6" r="15" fill="#EFC08D"/><circle cx="25.4" cy="82.0" r="15" fill="#EFC08D"/><circle cx="20.0" cy="62.0" r="15" fill="#EFC08D"/><circle cx="25.4" cy="42.0" r="15" fill="#EFC08D"/><circle cx="40.0" cy="27.4" r="15" fill="#EFC08D"/><circle cx="60.0" cy="22.0" r="15" fill="#EFC08D"/><circle cx="80.0" cy="27.4" r="15" fill="#EFC08D"/><circle cx="94.6" cy="42.0" r="15" fill="#EFC08D"/></g><circle cx="60" cy="62" r="42" fill="#EFC08D"/><g stroke="#1B1B1B" stroke-width="5" stroke-linejoin="round" stroke-linecap="round"><circle cx="38" cy="40" r="9" fill="#EFC08D"/><circle cx="82" cy="40" r="9" fill="#EFC08D"/><circle cx="60" cy="66" r="31" fill="#FFFFFF"/><path d="M53 72 L67 72 L60 80 Z" fill="#1B1B1B"/><path d="M60 80 Q55 88 48 84 M60 80 Q65 88 72 84" fill="none" stroke-width="4"/></g><circle cx="49" cy="61" r="4.8" fill="#1B1B1B"/><circle cx="71" cy="61" r="4.8" fill="#1B1B1B"/><circle cx="50.584" cy="59.416" r="1.6" fill="#FFFFFF"/><circle cx="72.584" cy="59.416" r="1.6" fill="#FFFFFF"/></svg>
