<svg xmlns="http://www.w3.org/2000/svg" viewBox="0 0 120 120"><g stroke="#1B1B1B" stroke-width="5" stroke-linejoin="round" stroke-linecap="round"><path d="M16 64 Q16 18 60 18 Q104 18 104 64 Q104 104 60 104 Q16 104 16 64 Z" fill="#005CA9"/><path d="M60 44 Q46 31 34 43 Q24 57 30 79 Q40 100 60 100 Q80 100 90 79 Q96 57 86 43 Q74 31 60 44 Z" fill="#FFFFFF"/><path d="M50 75 L70 75 L60 87 Z" fill="#EFC08D"/></g><circle cx="47" cy="63" r="5.5" fill="#1B1B1B"/><circle cx="73" cy="63" r="5.5" fill="#1B1B1B"/><circle cx="48.815" cy="61.185" r="1.8" fill="#FFFFFF"/><circle cx="74.815" cy="61.185" r="1.8" fill="#FFFFFF"/><ellipse cx="37" cy="80" rx="6" ry="4" fill="#F79DC6"/><ellipse cx="83" cy="80" rx="6" ry="4" fill="#F79DC6"/></svg>
